<svg width="1600" height="900" viewBox="0 0 1600 900" fill="none" xmlns="http://www.w3.org/2000/svg">
  <defs>
    <radialGradient id="g1" cx="0" cy="0" r="1" gradientUnits="userSpaceOnUse" gradientTransform="translate(1138 248) rotate(139) scale(810 561)">
      <stop stop-color="#8D1B2D"/>
      <stop offset="0.46" stop-color="#21101D"/>
      <stop offset="1" stop-color="#040507"/>
    </radialGradient>
    <linearGradient id="g2" x1="0" y1="0" x2="1600" y2="900" gradientUnits="userSpaceOnUse">
      <stop stop-color="#0D1016"/>
      <stop offset="0.5" stop-color="#151219" stop-opacity="0.55"/>
      <stop offset="1" stop-color="#010102"/>
    </linearGradient>
  </defs>
  <rect width="1600" height="900" fill="url(#g1)"/>
  <rect width="1600" height="900" fill="url(#g2)"/>
  <g opacity="0.22">
    <circle cx="1086" cy="370" r="178" fill="#F6D9B8"/>
    <circle cx="1242" cy="382" r="154" fill="#F0A8B5"/>
    <path d="M835 672C923 538 1011 484 1106 516C1189 544 1232 548 1314 506C1398 463 1481 497 1534 604V900H775C781 812 802 724 835 672Z" fill="#C62845"/>
  </g>
  <g opacity="0.18">
    <rect x="100" y="96" width="398" height="602" rx="28" stroke="#FFFFFF" stroke-width="10"/>
    <rect x="139" y="143" width="320" height="426" rx="18" fill="#FFFFFF"/>
    <rect x="139" y="594" width="320" height="30" rx="15" fill="#FFFFFF"/>
    <rect x="139" y="642" width="226" height="20" rx="10" fill="#FFFFFF"/>
  </g>
  <text x="115" y="796" fill="#FFFFFF" opacity="0.38" font-family="Arial, sans-serif" font-size="44" font-weight="700">adicione capa.jpg em dist/assets</text>
</svg>
